<svg xmlns="http://www.w3.org/2000/svg" width="22.589" height="22.589" viewBox="0 0 22.589 22.589"><defs><style>.a{fill:#fb0241;}</style></defs><g transform="translate(0 0)"><g transform="translate(0 0)"><path class="a" d="M14.81,4.916l1.284-3.854A.807.807,0,0,0,15.328,0H7.261A.807.807,0,0,0,6.5,1.062L7.78,4.916A8.882,8.882,0,0,0,0,13.715v4.841a4.039,4.039,0,0,0,4.034,4.034H18.555a4.039,4.039,0,0,0,4.034-4.034V13.715A8.881,8.881,0,0,0,14.81,4.916Zm-.6-3.3L13.133,4.841H9.456L8.38,1.613h5.83Zm6.766,16.942a2.42,2.42,0,0,1-2.42,2.42H4.034a2.42,2.42,0,0,1-2.42-2.42V13.715A7.27,7.27,0,0,1,8.874,6.454h4.841a7.27,7.27,0,0,1,7.261,7.261Z" transform="translate(0 0)"/></g></g><g transform="translate(8.067 7.261)"><path class="a" d="M174.7,159.246h-1.613a.807.807,0,0,1-.807-.807v-.807a.807.807,0,0,1,.807-.807H174.7a.807.807,0,0,1,.807.807.807.807,0,1,0,1.613,0,2.42,2.42,0,0,0-2.42-2.42v-.807a.807.807,0,0,0-1.614,0v.807a2.42,2.42,0,0,0-2.42,2.42v.807a2.42,2.42,0,0,0,2.42,2.42H174.7a.807.807,0,0,1,.807.807v.807a.807.807,0,0,1-.807.807h-1.613a.807.807,0,0,1-.807-.807.807.807,0,0,0-1.614,0,2.42,2.42,0,0,0,2.42,2.42v.807a.807.807,0,1,0,1.614,0v-.807a2.42,2.42,0,0,0,2.42-2.42v-.807A2.42,2.42,0,0,0,174.7,159.246Z" transform="translate(-170.666 -153.599)"/></g></svg>